<svg width="80" height="25" viewBox="0 0 80 25" fill="none" xmlns="http://www.w3.org/2000/svg">
<g clip-path="url(#clip0_2098_24292)">
<path d="M50.3929 11.4823C48.8131 9.35272 46.3196 8.2662 42.9744 8.25171H35.8176L36.4267 4.54789H50.3977V0.34668H32.6485L30.9925 12.2839H41.8419C42.7984 12.2839 47.5569 12.4771 47.5569 16.2726C47.5569 18.6678 44.9349 20.0972 40.5428 20.0972C36.6408 20.0972 34.2521 17.9579 33.1719 16.6831L33.1005 16.601L29.3223 19.0396L29.565 19.3294C30.6927 20.7008 33.6858 24.308 40.5428 24.308C49.013 24.308 52.0203 20.073 52.0203 16.4465C52.0203 15.7946 51.9014 13.5201 50.3929 11.4823Z" fill="black"/>
<path d="M68.1792 12.3028L68.5266 11.9503L79.9994 0.307617H76.0641L66.5614 9.95108L66.2092 10.3084L65.8619 9.95108L56.3544 0.307617H52.4238L63.8918 11.9503L64.244 12.3028L63.8918 12.6601L52.4667 24.2545H56.3972L65.8619 14.6545L66.2092 14.302L66.5614 14.6545L76.0213 24.2545H79.9565L68.5266 12.6601L68.1792 12.3028Z" fill="black"/>
<path d="M19.3576 0.351562H9.6788L0 23.5741H10.0928L19.7716 0.351562H19.3576Z" fill="black"/>
<path d="M29.4556 23.5733L20.8046 2.82324L15.7559 14.9343L19.358 23.5733H29.4556Z" fill="black"/>
</g>
<defs>
<clipPath id="clip0_2098_24292">
<rect width="80" height="24" fill="white" transform="translate(0 0.307617)"/>
</clipPath>
</defs>
</svg>
